<svg width="22" height="16" viewBox="0 0 22 16" fill="none" xmlns="http://www.w3.org/2000/svg">
<path d="M1 6.98975C0.447715 6.98975 0 7.43746 0 7.98975C0 8.54203 0.447715 8.98975 1 8.98975V6.98975ZM21.7071 8.69685C22.0976 8.30633 22.0976 7.67316 21.7071 7.28264L15.3431 0.918678C14.9526 0.528154 14.3195 0.528154 13.9289 0.918678C13.5384 1.3092 13.5384 1.94237 13.9289 2.33289L19.5858 7.98975L13.9289 13.6466C13.5384 14.0371 13.5384 14.6703 13.9289 15.0608C14.3195 15.4513 14.9526 15.4513 15.3431 15.0608L21.7071 8.69685ZM1 8.98975H21V6.98975H1V8.98975Z" fill="#3A0CA3"/>
</svg>
