<svg width="22" height="16" viewBox="0 0 22 16" fill="none" xmlns="http://www.w3.org/2000/svg">
<path d="M21 8.98975C21.5523 8.98975 22 8.54203 22 7.98975C22 7.43746 21.5523 6.98975 21 6.98975L21 8.98975ZM0.292893 7.28264C-0.0976314 7.67316 -0.0976315 8.30633 0.292892 8.69685L6.65685 15.0608C7.04738 15.4513 7.68054 15.4513 8.07107 15.0608C8.46159 14.6703 8.46159 14.0371 8.07107 13.6466L2.41421 7.98974L8.07107 2.33289C8.46159 1.94237 8.46159 1.3092 8.07107 0.918677C7.68054 0.528153 7.04738 0.528153 6.65686 0.918677L0.292893 7.28264ZM21 6.98975L1 6.98974L1 8.98974L21 8.98975L21 6.98975Z" fill="#3A0CA3"/>
</svg>
