<svg width="30" height="23" viewBox="0 0 30 23" fill="none" xmlns="http://www.w3.org/2000/svg">
<path d="M25 5.48975H12V13.0284H10.6154V10.4659C10.6138 9.01407 10.0363 7.62213 9.00971 6.5955C7.9831 5.56887 6.59117 4.99138 5.13931 4.98975H2V0.989746H0V22.4897H2V19.5058L28 19.7138V22.4897H30V10.4897C29.9985 9.16413 29.4712 7.89323 28.5339 6.95587C27.5965 6.01852 26.3256 5.49125 25 5.48975ZM2 6.98975H5.13931C6.0609 6.99079 6.94445 7.35735 7.59611 8.00901C8.24777 8.66067 8.61433 9.54422 8.61537 10.4658V13.0283H2V6.98975ZM28 17.7137L2 17.5057V15.0284H28V17.7137ZM28 13.0284H14V7.48975H25C25.7954 7.49066 26.5579 7.80702 27.1203 8.36943C27.6827 8.93184 27.9991 9.69438 28 10.4897V13.0284Z" fill="#2B2B2B"/>
</svg>
