<svg width="14" height="24" viewBox="0 0 14 24" fill="none" xmlns="http://www.w3.org/2000/svg">
<path d="M9.03064 10.8281H9.03008H4.96992C4.48037 10.8281 4.01087 10.6336 3.6647 10.2875C3.31854 9.94131 3.12406 9.4718 3.12406 8.98225C3.12406 8.4927 3.31854 8.0232 3.6647 7.67703C4.01087 7.33087 4.48037 7.13639 4.96992 7.13639H11.4662H11.9662V6.63639V5.01233V4.51233H11.4662H8.51504V1.98975V1.48975H8.01504H6.39098H5.89098V1.98975V4.51233H4.96992C3.78442 4.51233 2.64748 4.98327 1.80921 5.82154C0.970936 6.65981 0.5 7.79676 0.5 8.98225C0.5 10.1677 0.970937 11.3047 1.80921 12.143C2.64748 12.9812 3.78442 13.4522 4.96992 13.4522H9.02952C9.51905 13.4527 9.98838 13.6474 10.3345 13.9936C10.6807 14.3397 10.8754 14.8091 10.8759 15.2986V15.4779C10.8754 15.9675 10.6807 16.4368 10.3345 16.783C9.98838 17.1291 9.51905 17.3238 9.02952 17.3244H2.15791H1.65791V17.8244V19.4484V19.9484H2.15791H5.89098V22.2905V22.7905H6.39098H8.01504H8.51504V22.2905V19.9484H9.03008H9.03064C10.2156 19.9471 11.3516 19.4758 12.1895 18.6379C13.0274 17.8 13.4987 16.664 13.5 15.4791V15.4785V15.298V15.2975C13.4987 14.1125 13.0274 12.9765 12.1895 12.1386C11.3516 11.3007 10.2156 10.8294 9.03064 10.8281Z" fill="#00CE3A" stroke="#00CE3A"/>
</svg>
