<svg width="20" height="24" viewBox="0 0 20 24" fill="none" xmlns="http://www.w3.org/2000/svg">
<path d="M12.4076 12.2426C12.6672 11.8162 12.9355 11.3754 13.2006 10.9209C14.0877 9.40019 14.2505 7.86789 13.6846 6.36651C12.5427 3.33721 8.72575 1.4915 7.84209 1.19701L7.22073 0.989746L6.25093 2.92972L6.71893 3.31206C6.72417 3.31626 7.244 3.77048 7.27865 4.45905C7.30824 5.04685 6.986 5.68204 6.32112 6.34711C5.8594 6.80878 5.35264 7.25522 4.8161 7.7278C2.55865 9.71583 0 11.9697 0 16.2336C0 16.2922 0.000550676 16.3504 0.00165204 16.4083C0.0180119 17.3492 0.2201 18.2776 0.596308 19.1402C0.972516 20.0028 1.51543 20.7826 2.19387 21.4348C3.55621 22.7598 5.38285 23.4994 7.28332 23.4954H11.6306L11.0939 22.4064C8.91356 17.9812 10.4555 15.4487 12.4076 12.2426Z" fill="#FF1111"/>
<path d="M19.8229 16.1852C19.8103 16.1353 19.7972 16.0852 19.7835 16.0349C19.2385 14.0368 16.2218 11.4676 15.8797 11.1812L15.1925 10.6062L14.742 11.3807C13.7152 13.146 12.834 14.7561 12.4499 16.5828C12.0119 18.666 12.3067 20.7833 13.3515 23.0556L13.5535 23.4953H14.067C14.9713 23.498 15.8642 23.2929 16.6769 22.896C17.4895 22.4991 18.2001 21.9209 18.7541 21.2061C19.3046 20.5068 19.6873 19.6905 19.8726 18.82C20.0579 17.9495 20.0409 17.0481 19.8229 16.1852Z" fill="#FF1111"/>
</svg>
