<svg width="22" height="22" viewBox="0 0 22 22" fill="none" xmlns="http://www.w3.org/2000/svg">
<path d="M4.92503 22.0008H0.363799V7.31212H4.92503V22.0008ZM2.64167 5.30848C1.18333 5.30848 0 4.1 0 2.64167C0 1.18333 1.18254 0 2.64167 0C4.10079 0 5.28333 1.18254 5.28333 2.64167C5.28333 4.1 4.1 5.30848 2.64167 5.30848ZM21.9961 22.0008H17.4451V14.8505C17.4451 13.1463 17.4105 10.9611 15.0737 10.9611C12.7023 10.9611 12.3385 12.8123 12.3385 14.728V22.0008H7.78199V7.31212H12.1562V9.31576H12.2199C12.8288 8.1615 14.3162 6.9436 16.5352 6.9436C21.1514 6.9436 22 9.98364 22 13.932V22.0008H21.9961Z" fill="#3A0CA3"/>
</svg>
