<svg width="40" height="40" viewBox="0 0 40 40" fill="none" xmlns="http://www.w3.org/2000/svg">
<path d="M30.531 38.8724H19.1277C18.3736 38.8724 17.7483 38.2471 17.7483 37.493C17.7483 36.7389 18.3736 36.1136 19.1277 36.1136H30.531C32.499 36.1136 34.4301 34.4765 34.7612 32.5269L37.2074 17.8867C37.4281 16.5625 36.6926 14.6679 35.6626 13.8402L22.9165 3.651C21.4451 2.47389 18.999 2.47387 17.546 3.63259L4.8001 13.8402C3.75174 14.6863 3.03444 16.5625 3.25514 17.8867L3.77013 20.9949C3.89888 21.7489 3.38391 22.4662 2.62982 22.5766C1.87574 22.7237 1.17685 22.1904 1.0481 21.4363L0.533113 18.3465C0.146873 16.0659 1.25043 13.1415 3.07128 11.6885L15.8172 1.48061C18.2817 -0.505767 22.1624 -0.487356 24.6454 1.49902L37.3913 11.6885C39.1938 13.1415 40.2973 16.0659 39.9295 18.3465L37.4833 32.9867C36.9315 36.2421 33.8232 38.8724 30.531 38.8724Z" fill="#4361EE"/>
<path d="M7.35738 39.2221C6.60329 39.2221 5.99634 38.6151 5.97795 37.8794C5.92277 35.3964 4.28587 33.7595 1.80291 33.7043C1.04882 33.686 0.441854 33.0606 0.460246 32.2881C0.478638 31.5341 1.08559 30.9455 1.83967 30.9455H1.87644C5.8308 31.0375 8.66324 33.8515 8.7368 37.8058C8.7552 38.5599 8.14823 39.2037 7.39415 39.2221C7.37575 39.2221 7.37577 39.2221 7.35738 39.2221Z" fill="#4361EE"/>
<path d="M12.8751 39.222C12.121 39.222 11.4956 38.6151 11.4956 37.861C11.4772 36.6471 11.2749 35.4884 10.9071 34.4032C9.96906 31.7179 7.9643 29.7314 5.27901 28.775C4.19386 28.3887 3.03515 28.1866 1.82125 28.1866C1.06716 28.1866 0.441842 27.5612 0.460235 26.7888C0.460235 26.0347 1.08557 25.4277 1.83966 25.4277H1.85805C3.38462 25.4461 4.8376 25.7036 6.19863 26.1818C9.67479 27.4141 12.2681 30.0074 13.5004 33.4836C13.9786 34.8446 14.2361 36.316 14.2545 37.8242C14.2545 38.5967 13.6476 39.222 12.8751 39.222Z" fill="#4361EE"/>
<path d="M1.83924 39.6819C0.809264 39.6819 0 38.8542 0 37.8427C0 36.8311 0.827656 36.0034 1.83924 36.0034C2.85082 36.0034 3.67847 36.8311 3.67847 37.8427C3.67847 38.8542 2.86921 39.6819 1.83924 39.6819Z" fill="#4361EE"/>
</svg>
