<svg width="14" height="15" viewBox="0 0 14 15" fill="none" xmlns="http://www.w3.org/2000/svg">
<path d="M13.9412 6.03299C13.8743 5.82533 13.7512 5.64023 13.5856 5.49819C13.42 5.35615 13.2183 5.26272 13.0028 5.22823L9.62216 4.67882L8.05497 1.63341C7.95515 1.43953 7.80385 1.2769 7.61767 1.16336C7.4315 1.04981 7.21765 0.989746 6.99958 0.989746C6.78151 0.989746 6.56766 1.04981 6.38148 1.16336C6.19531 1.2769 6.04401 1.43953 5.94418 1.63341L4.377 4.67882L0.996381 5.22823C0.781151 5.26326 0.579729 5.3569 0.414215 5.49887C0.248701 5.64084 0.125491 5.82566 0.0581037 6.03305C-0.00928335 6.24044 -0.0182434 6.46239 0.0322066 6.67453C0.0826566 6.88668 0.190567 7.08083 0.344098 7.23568L2.75618 9.66725L2.2341 13.0522C2.2006 13.2678 2.2272 13.4884 2.31099 13.6899C2.39478 13.8913 2.53251 14.0658 2.70902 14.194C2.88554 14.3223 3.094 14.3994 3.31149 14.4168C3.52897 14.4342 3.74705 14.3914 3.94175 14.2929L6.99958 12.7503L10.0575 14.2929C10.2522 14.3912 10.4702 14.4339 10.6876 14.4164C10.905 14.3988 11.1134 14.3217 11.2899 14.1935C11.4663 14.0653 11.604 13.891 11.6879 13.6896C11.7717 13.4883 11.7985 13.2677 11.7651 13.0522L11.2431 9.66725L13.6551 7.23568C13.8092 7.08113 13.9174 6.88697 13.9679 6.67471C14.0184 6.46244 14.0092 6.24034 13.9412 6.03299Z" fill="#D4D4D4"/>
</svg>
