<svg width="44" height="48" viewBox="0 0 44 48" fill="none" xmlns="http://www.w3.org/2000/svg">
<path d="M42 16.4855V31.5433C42 34.0089 40.6791 36.2984 38.5437 37.5532L25.4672 45.1041C23.3318 46.3369 20.6901 46.3369 18.5327 45.1041L5.45625 37.5532C3.32086 36.3204 2 34.0309 2 31.5433V16.4855C2 14.0199 3.32086 11.7303 5.45625 10.4755L18.5327 2.9246C20.6681 1.6918 23.3098 1.6918 25.4672 2.9246L38.5437 10.4755C40.6791 11.7303 42 13.9979 42 16.4855Z" stroke="#4361EE" stroke-width="3" stroke-linecap="round" stroke-linejoin="round"/>
<path d="M22.011 21.8132C24.844 21.8132 27.1403 19.5165 27.1403 16.6837C27.1403 13.8508 24.844 11.5544 22.011 11.5544C19.1782 11.5544 16.8817 13.8508 16.8817 16.6837C16.8817 19.5165 19.1782 21.8132 22.011 21.8132Z" stroke="#4361EE" stroke-width="3" stroke-linecap="round" stroke-linejoin="round"/>
<path d="M30.8167 34.2734C30.8167 30.3108 26.8761 27.0967 22.0109 27.0967C17.1458 27.0967 13.2052 30.3108 13.2052 34.2734" stroke="#4361EE" stroke-width="3" stroke-linecap="round" stroke-linejoin="round"/>
</svg>
